<svg width="633" height="304" viewBox="0 0 633 304" fill="none" xmlns="http://www.w3.org/2000/svg">
<path d="M7.35144 151.427L233.159 296.647L624.697 296.042L625.269 223.488L422.917 7.35306H7.35144V151.427ZM232.081 304C231.376 304 230.686 303.797 230.094 303.416L1.6874 156.525C0.634621 155.85 0 154.684 0 153.434V3.67654C0 1.64642 1.64641 0 3.6749 0H424.511C425.528 0 426.5 0.421417 427.195 1.16428L631.642 219.536C632.285 220.225 632.64 221.135 632.632 222.078L632.021 299.741C632.004 301.758 630.368 303.385 628.352 303.388L232.086 304H232.081Z" fill="black"/>
<path d="M239.061 269.304H258.471V263.779H239.061V269.304ZM239.061 255.416H266.836V277.667H230.697V241.528H266.836V249.84H239.061V255.416Z" fill="black"/>
<path d="M306.743 241.528H315.107V277.667H278.969V269.304H306.743V263.779H278.969V241.528H287.332V255.416H306.743V241.528Z" fill="black"/>
<path d="M339.732 269.3H356.096V249.837H344.327L339.732 256.237V269.3ZM364.461 269.145H368.593V285.82H360.279V277.664H335.601V285.82H327.238V269.145H331.42V252.728L339.525 241.525H364.461V269.145Z" fill="black"/>
<path d="M408.498 241.528H416.863V277.667H380.724V269.304H408.498V263.779H380.724V241.528H389.087V255.416H408.498V241.528Z" fill="black"/>
<path d="M465.134 269.302H469.316V285.978H460.953V277.665H428.995V241.526H437.36V269.302H442.883V241.526H451.246V269.302H456.769V241.526H465.134V269.302Z" fill="black"/>
<path d="M515.005 249.891H487.231V255.414H515.005V263.779H487.231V269.303H515.005V277.665H478.866V241.526H515.005V249.891Z" fill="black"/>
<path d="M563.275 241.528V249.84H535.501V277.667H527.136V241.528H563.275Z" fill="black"/>
<path d="M583.771 269.304H603.182V249.84H583.771V269.304ZM575.408 241.528H611.547V277.667H575.408V241.528Z" fill="black"/>
<path d="M157.559 28.303V98.1261H125.967L157.559 141.705H126.129L94.5392 98.1261H70.4007V141.705H44.1549V28.303H70.4007V71.882H131.314V28.303H157.559Z" fill="black"/>
<path d="M200 115.461H260.914V54.3848H200V115.461ZM173.756 28.303H287.16V141.705H173.756V28.303Z" fill="black"/>
<path d="M342.563 115.464H393.917V54.388H356.981L342.563 74.4761V115.464ZM420.164 114.977H433.124V167.305H407.042V141.708H329.603V167.305H303.358V114.977H316.481V63.4596L341.915 28.3062H420.164V114.977Z" fill="black"/>
</svg>
